<?xml version="1.0" encoding="UTF-8"?>
<svg id="Calque_2" data-name="Calque 2" xmlns="http://www.w3.org/2000/svg" width="77.31mm" height="35.83mm" viewBox="0 0 219.14 101.55">
  <g id="Calque_1-2" data-name="Calque 1">
    <g>
      <path d="M146.43,85.98c0-.68-.03-1.22-.11-1.86h2.77c-.07.56-.11,1.21-.11,1.86v.29h.49c.6,0,.91-.01,1.33-.07v2.25c-.41-.05-.76-.08-1.25-.08h-.57v3.47c0,.38.07.57.24.69.15.09.37.15.62.15.35,0,.61-.07.95-.24l.2,2.06c-.61.19-1.14.27-1.87.27-.92,0-1.56-.15-1.99-.48-.52-.39-.71-.85-.71-1.78v-4.15h-.52c-.43,0-.79.03-1.18.08v-2.26c.39.05.73.08,1.21.08h.49v-.29Z" fill="#f3f4f6"/>
      <path d="M151.5,90.39c0-2.71,1.74-4.44,4.48-4.44s4.48,1.72,4.48,4.41-1.79,4.49-4.49,4.49-4.46-1.74-4.46-4.46ZM154.09,90.38c0,1.51.71,2.41,1.89,2.41s1.86-.88,1.86-2.39-.69-2.42-1.84-2.42-1.9.9-1.9,2.39Z" fill="#f3f4f6"/>
      <path d="M161.55,94.54c.08-.62.11-1.19.11-2.05v-4.18c0-1.03-.03-1.52-.11-2.05h2.69v.57q0,.05-.01.19v.14c.69-.76,1.52-1.11,2.59-1.11.71,0,1.29.16,1.74.49.24.18.38.34.56.68.84-.83,1.67-1.18,2.85-1.18,1.94,0,2.93,1.06,2.93,3.11v3.36c0,.84.03,1.4.11,2.03h-2.82c.08-.64.11-1.13.11-2.05v-2.79c0-1.02-.3-1.41-1.07-1.41-.69,0-1.32.54-1.65,1.45v2.77c0,.81.03,1.38.11,2.03h-2.82c.08-.61.11-1.18.11-2.05v-2.79c0-.57-.05-.83-.23-1.06-.15-.22-.42-.34-.75-.34-.73,0-1.36.53-1.74,1.45v2.74c0,.85.03,1.38.11,2.05h-2.79Z" fill="#f3f4f6"/>
      <path d="M181.84,88.87c0-.65-.39-.95-1.29-.95s-1.33.28-1.53.95l-2.59-.42c.27-.8.57-1.23,1.14-1.64.73-.52,1.74-.77,3.05-.77,1,0,1.98.19,2.51.47.87.47,1.25,1.22,1.25,2.44v3.66c0,.83.03,1.32.09,1.93h-2.63v-.62c-.76.58-1.52.81-2.63.81-1.03,0-1.8-.24-2.35-.75-.49-.45-.75-1.1-.75-1.84,0-.85.34-1.53.99-1.98.69-.49,1.6-.77,2.82-.88.53-.05.94-.07,1.91-.09v-.31ZM181.84,90.92c-1.21.03-1.79.09-2.35.27-.49.16-.79.5-.79.9,0,.49.41.77,1.11.77.56,0,1.17-.2,1.53-.52.31-.27.49-.64.49-1.04v-.38Z" fill="#f3f4f6"/>
      <path d="M188.66,83.26c-.08.56-.11,1.14-.11,2.05v3.81l1.49-1.48c.62-.62.92-.98,1.18-1.37h3.61c-.53.46-.69.61-1.42,1.33l-1.97,1.9,2.26,3.31c.83,1.19.88,1.28,1.26,1.74h-3.46c-.2-.57-.5-1.17-.9-1.82l-1.03-1.68-1.02.98v.54c0,1.11.01,1.44.11,1.98h-2.77c.08-.61.11-1.15.11-2.05v-7.19c0-.92-.04-1.55-.11-2.05h2.75Z" fill="#f3f4f6"/>
      <path d="M204.37,86.27c-.08.64-.11,1.21-.11,2.04v4.19c0,.94.03,1.49.11,2.03h-2.7v-.58c0-.07,0-.27.01-.37-.9.84-1.67,1.17-2.82,1.17-.91,0-1.64-.26-2.16-.76-.54-.54-.77-1.21-.77-2.28v-3.4c0-.79-.04-1.47-.11-2.04h2.82c-.08.65-.11,1.22-.11,2.04v2.78c0,.56.05.8.22,1.02.19.24.49.38.88.38.75,0,1.5-.53,2.03-1.4v-2.78c0-.76-.03-1.33-.11-2.04h2.81Z" fill="#f3f4f6"/>
      <path d="M205.79,94.54c.08-.64.11-1.21.11-2.05v-4.18c0-.94-.03-1.51-.11-2.05h2.7v.57c0,.08-.01.29-.01.38.85-.81,1.68-1.15,2.79-1.15.94,0,1.68.26,2.18.76.54.54.77,1.21.77,2.28v3.41c0,.79.04,1.46.11,2.03h-2.82c.08-.65.11-1.22.11-2.05v-2.78c0-.54-.05-.77-.22-1-.18-.24-.49-.38-.9-.38-.76,0-1.44.48-2.02,1.42v2.74c0,.77.03,1.34.11,2.05h-2.81Z" fill="#f3f4f6"/>
      <path d="M218.46,91.8v2.74h-2.74v-2.74h2.74Z" fill="#f3f4f6"/>
    </g>
    <g>
      <circle cx="203.58" cy="14.59" r="14.33" transform="translate(112.19 197.09) rotate(-67.5)" fill="#da3832"/>
      <path d="M55.52,65.85l5.2,2.36,10.23-19.82-5.62-2.66c-7.48-3.54-14.85-6.49-22.48-8.99-6.41-2.17-13.03-3.95-19.74-5.33V0H0v95.56h23.12v-41.08c4.38,1.04,8.91,2.33,13.51,3.84,6.19,2.09,12.37,4.55,18.89,7.52Z" fill="#f3f4f6"/>
      <path d="M129.91,55.06c4.48-4.75,9.05-9.99,13.64-15.65,7.09-8.91,12.76-16.96,16.85-23.92l2.28-3.87-10.91-11.62h-86.01v22.22h62.26c-2.1,2.73-4.31,5.45-6.6,8.12-2.81,3.23-5.85,6.54-9.09,9.9-6.38-4.88-12.94-9.4-19.57-13.46l-4.46-2.73-14.34,17.51,5.69,3.63c7.78,4.97,16.28,11.32,25.95,19.37,9.45,8.01,17.35,15.61,23.48,22.6l3.89,4.44,17.76-15.08-4.16-4.59c-5.3-5.84-10.89-11.5-16.66-16.88Z" fill="#f3f4f6"/>
      <rect x="30.68" y="77.71" width="83.32" height="17.22" fill="#f3f4f6"/>
      <path d="M168.86,65.99l-.19-.16c-4.97-4.34-8.63-7.28-13.03-10.47-1.87-1.37-3.04-2.23-3.49-2.62.25-.22.7-.55.89-.7,4.14-3.04,7.76-5.91,10.49-8.3l.2-.18c3.74-3.33,4.13-3.68,5.06-4.26l1.27-.8-9.15-6.46-.58.83c-.63.9-1.01,1.33-2.01,2.33-2.98,2.98-5.68,5.25-11.08,9.31-2.64,2-3.34,2.61-4.02,3.33-1.19,1.39-1.82,3.02-1.82,4.73,0,1.06.28,2.27.75,3.27.62,1.19,1.45,2.05,3.71,3.82,7.45,5.78,8.84,6.94,12.46,10.35,2.32,2.23,3.17,3.23,4.09,4.5l.7.96,7.64-7.81-.79-.7c-.52-.46-.87-.74-1.12-.95Z" fill="#f3f4f6"/>
      <path d="M214.69,57c-3-1.33-4.15-2.06-6.51-4.09l-1.54-1.32-.12,2.02c-.16,2.78-.72,5.31-1.66,7.52-1.1,2.52-2.2,2.84-3.04,2.84-.56,0-1.04,0-1.04-2.93v-.21c-.09-5.13-.09-5.55-.55-7.17-.79-2.93-3.39-4.82-6.62-4.82-1.14,0-2.25.21-3.33.65,3.94-10.13,4.59-11.65,5.41-13.16l.63-1.18-10.61-2.23-.18,1.02c-.3,1.71-1.27,4.73-4.51,14.05l-2,5.76c-1.36,3.93-2.19,6.29-2.42,7.04-2.57,7.46-2.63,7.58-3.35,8.97l-.55,1.07,10.06,2.99.23-1.06c.59-2.78,2.01-6.98,3.25-9.56,1.44-3.1,3.21-4.95,4.75-4.95.5,0,.78,0,.78,1.76v.7c-.04,1.84-.04,2.66-.04,3.04,0,3.3.67,5.33,2.31,7.02,1.58,1.68,3.91,2.53,6.94,2.53,4.22,0,7.87-1.76,10.28-4.95,1.98-2.66,3.18-5.72,4.01-10.24l.14-.77-.72-.32Z" fill="#f3f4f6"/>
    </g>
  </g>
</svg>
